HIERARCHY
ROOT pelvis
{
  OFFSET 0 100 0
  CHANNELS 6 Xposition Yposition Zposition Zrotation Xrotation Yrotation
  JOINT pelvis_right_femur
  {
    OFFSET -10.78128 -3.44521 -0.5502486
    CHANNELS 3 Zrotation Xrotation Yrotation
    JOINT right_femur_tibia
    {
      OFFSET -0.8047443 -44.0398 -0.1307829
      CHANNELS 3 Zrotation Xrotation Yrotation
      JOINT right_tibia_foot
      {
        OFFSET 3.006224 -47.83518 -5
        CHANNELS 3 Zrotation Xrotation Yrotation
        End Site
        {
          OFFSET 0 -5 15
        }
      }
    }
  }
  JOINT pelvis_left_femur
  {
    OFFSET 10.78128 -3.44521 -0.5502486
    CHANNELS 3 Zrotation Xrotation Yrotation
    JOINT left_femur_tibia
    {
      OFFSET 0.8047443 -44.0398 -0.1307829
      CHANNELS 3 Zrotation Xrotation Yrotation
      JOINT left_tibia_foot
      {
        OFFSET -4.370144 -48.10324 -4.275266
        CHANNELS 3 Zrotation Xrotation Yrotation
        End Site
        {
          OFFSET 0 -5 15
        }
      }
    }
  }
  JOINT pelvis_spine1
  {
    OFFSET 0 6.468898 -3.129235
    CHANNELS 3 Zrotation Xrotation Yrotation
    JOINT spine1
    {
      OFFSET 0 23.15396 4.99043
      CHANNELS 3 Zrotation Xrotation Yrotation
      JOINT spine2
      {
        OFFSET 0 20.79997 -5.064912
        CHANNELS 3 Zrotation Xrotation Yrotation
        JOINT neck
        {
          OFFSET 0 14.38658 9.616178
          CHANNELS 3 Zrotation Xrotation Yrotation
          End Site
          {
            OFFSET 0 20 0
          }
        }
      }
      JOINT right_manubrium
      {
        OFFSET -5.722621 16.35077 3.967754
        CHANNELS 3 Zrotation Xrotation Yrotation
        JOINT right_clavicle
        {
          OFFSET -13.16364 1.694482 -4.693211
          CHANNELS 3 Zrotation Xrotation Yrotation
          JOINT right_humerus
          {
            OFFSET -28.5034 -0.3100689 -2.792744
            CHANNELS 3 Zrotation Xrotation Yrotation
            JOINT right_radius
            {
              OFFSET -25.15693 0.02248979 -1.271978
              CHANNELS 3 Zrotation Xrotation Yrotation
              End Site
              {
                OFFSET -15 0 0
              }
            }
          }
        }
      }
      JOINT left_manubrium
      {
        OFFSET 5.722621 16.35077 3.967754
        CHANNELS 3 Zrotation Xrotation Yrotation
        JOINT left_clavicle
        {
          OFFSET 13.16364 1.694482 -4.693211
          CHANNELS 3 Zrotation Xrotation Yrotation
          JOINT left_humerus
          {
            OFFSET 29.39168 -1.063119 -2.237045
            CHANNELS 3 Zrotation Xrotation Yrotation
            JOINT left_radius
            {
              OFFSET 24.59957 -0.9528479 0.9047498
              CHANNELS 3 Zrotation Xrotation Yrotation
              End Site
              {
                OFFSET 15 -0 -0
              }
            }
          }
        }
      }
    }
  }
}
MOTION
Frames: 23
Frame Time: 0.0416666666667
-97.07454 126.9539 -25.81275 4.117037 -9.456563 28.84841 5.847147 17.92089 2.50344 -0 16.72566 -0 -12.35165 -16.98498 -4.370185 4.552161 -18.87108 -3.52739 -0 12.50603 -0 3.852126 -0.03237093 17.17326 1.109062 -2.977035 7.67975 0.2058609 14.38567 -6.088603 1.194809 20.37015 1.34074 -0.1353517 -17.31736 4.051346 -4.093845 -31.2926 11.10503 89.65855 18.67338 -8.258674 -0 0 29.61545 -19.7377 13.96228 12.51362 1.066415 -20.92324 -7.247574 -94.91486 11.56715 38.38317 0 0 -4.439582 6.235049 15.86076 5.047845
-93.73541 126.9069 -21.53346 3.999419 -9.506528 28.13441 5.847147 17.92089 2.50344 -0 16.72566 -0 -12.35165 -16.98498 -4.370185 4.552161 -18.87108 -3.52739 -0 12.50603 -0 3.852126 -0.03237093 17.17326 1.109062 -2.977035 7.67975 0.2058609 14.38567 -6.088603 1.194809 20.37015 1.34074 -0.1353517 -17.31736 4.051346 -4.093845 -31.2926 11.10503 89.65855 18.67338 -8.258674 -0 0 29.61545 -19.7377 13.96228 12.51362 1.066415 -20.92324 -7.247574 -94.91486 11.56715 38.38317 0 0 -4.439582 6.235049 15.86076 5.047845
-90.44926 126.86 -17.21335 3.881161 -9.555044 27.42021 5.847147 17.92089 2.50344 -0 16.72566 -0 -12.35165 -16.98498 -4.370185 4.552161 -18.87108 -3.52739 -0 12.50603 -0 3.852126 -0.03237093 17.17326 1.109062 -2.977035 7.67975 0.2058609 14.38567 -6.088603 1.194809 20.37015 1.34074 -0.1353517 -17.31736 4.051346 -4.093845 -31.2926 11.10503 89.65855 18.67338 -8.258674 -0 0 29.61545 -19.7377 13.96228 12.51362 1.066415 -20.92324 -7.247574 -94.91486 11.56715 38.38317 0 0 -4.439582 6.235049 15.86076 5.047845
-87.2166 126.813 -12.85308 3.762283 -9.602102 26.70581 5.847147 17.92089 2.50344 -0 16.72566 -0 -12.35165 -16.98498 -4.370185 4.552161 -18.87108 -3.52739 -0 12.50603 -0 3.852126 -0.03237093 17.17326 1.109062 -2.977035 7.67975 0.2058609 14.38567 -6.088603 1.194809 20.37015 1.34074 -0.1353517 -17.31736 4.051346 -4.093845 -31.2926 11.10503 89.65855 18.67338 -8.258674 -0 0 29.61545 -19.7377 13.96228 12.51362 1.066415 -20.92324 -7.247574 -94.91486 11.56715 38.38317 0 0 -4.439582 6.235049 15.86076 5.047845
-84.03791 126.766 -8.453302 3.642803 -9.647694 25.99121 5.847147 17.92089 2.50344 -0 16.72566 -0 -12.35165 -16.98498 -4.370185 4.552161 -18.87108 -3.52739 -0 12.50603 -0 3.852126 -0.03237093 17.17326 1.109062 -2.977035 7.67975 0.2058609 14.38567 -6.088603 1.194809 20.37015 1.34074 -0.1353517 -17.31736 4.051346 -4.093845 -31.2926 11.10503 89.65855 18.67338 -8.258674 -0 0 29.61545 -19.7377 13.96228 12.51362 1.066415 -20.92324 -7.247574 -94.91486 11.56715 38.38317 0 0 -4.439582 6.235049 15.86076 5.047845
-80.91368 126.719 -4.014692 3.522739 -9.691814 25.27642 5.847147 17.92089 2.50344 -0 16.72566 -0 -12.35165 -16.98498 -4.370185 4.552161 -18.87108 -3.52739 -0 12.50603 -0 3.852126 -0.03237093 17.17326 1.109062 -2.977035 7.67975 0.2058609 14.38567 -6.088603 1.194809 20.37015 1.34074 -0.1353517 -17.31736 4.051346 -4.093845 -31.2926 11.10503 89.65855 18.67338 -8.258674 -0 0 29.61545 -19.7377 13.96228 12.51362 1.066415 -20.92324 -7.247574 -94.91486 11.56715 38.38317 0 0 -4.439582 6.235049 15.86076 5.047845
-77.84437 126.6721 0.4620772 3.40211 -9.734453 24.56145 5.847147 17.92089 2.50344 -0 16.72566 -0 -12.35165 -16.98498 -4.370185 4.552161 -18.87108 -3.52739 -0 12.50603 -0 3.852126 -0.03237093 17.17326 1.109062 -2.977035 7.67975 0.2058609 14.38567 -6.088603 1.194809 20.37015 1.34074 -0.1353517 -17.31736 4.051346 -4.093845 -31.2926 11.10503 89.65855 18.67338 -8.258674 -0 0 29.61545 -19.7377 13.96228 12.51362 1.066415 -20.92324 -7.247574 -94.91486 11.56715 38.38317 0 0 -4.439582 6.235049 15.86076 5.047845
-74.83046 126.6251 4.976327 3.280936 -9.775605 23.84629 5.847147 17.92089 2.50344 -0 16.72566 -0 -12.35165 -16.98498 -4.370185 4.552161 -18.87108 -3.52739 -0 12.50603 -0 3.852126 -0.03237093 17.17326 1.109062 -2.977035 7.67975 0.2058609 14.38567 -6.088603 1.194809 20.37015 1.34074 -0.1353517 -17.31736 4.051346 -4.093845 -31.2926 11.10503 89.65855 18.67338 -8.258674 -0 0 29.61545 -19.7377 13.96228 12.51362 1.066415 -20.92324 -7.247574 -94.91486 11.56715 38.38317 0 0 -4.439582 6.235049 15.86076 5.047845
-71.8724 126.5781 9.527371 3.159235 -9.815264 23.13097 5.847147 17.92089 2.50344 -0 16.72566 -0 -12.35165 -16.98498 -4.370185 4.552161 -18.87108 -3.52739 -0 12.50603 -0 3.852126 -0.03237093 17.17326 1.109062 -2.977035 7.67975 0.2058609 14.38567 -6.088603 1.194809 20.37015 1.34074 -0.1353517 -17.31736 4.051346 -4.093845 -31.2926 11.10503 89.65855 18.67338 -8.258674 -0 0 29.61545 -19.7377 13.96228 12.51362 1.066415 -20.92324 -7.247574 -94.91486 11.56715 38.38317 0 0 -4.439582 6.235049 15.86076 5.047845
-68.97065 126.5311 14.11452 3.037027 -9.853422 22.41547 5.847147 17.92089 2.50344 -0 16.72566 -0 -12.35165 -16.98498 -4.370185 4.552161 -18.87108 -3.52739 -0 12.50603 -0 3.852126 -0.03237093 17.17326 1.109062 -2.977035 7.67975 0.2058609 14.38567 -6.088603 1.194809 20.37015 1.34074 -0.1353517 -17.31736 4.051346 -4.093845 -31.2926 11.10503 89.65855 18.67338 -8.258674 -0 0 29.61545 -19.7377 13.96228 12.51362 1.066415 -20.92324 -7.247574 -94.91486 11.56715 38.38317 0 0 -4.439582 6.235049 15.86076 5.047845
-66.12563 126.4841 18.73707 2.914331 -9.890073 21.69981 5.847147 17.92089 2.50344 -0 16.72566 -0 -12.35165 -16.98498 -4.370185 4.552161 -18.87108 -3.52739 -0 12.50603 -0 3.852126 -0.03237093 17.17326 1.109062 -2.977035 7.67975 0.2058609 14.38567 -6.088603 1.194809 20.37015 1.34074 -0.1353517 -17.31736 4.051346 -4.093845 -31.2926 11.10503 89.65855 18.67338 -8.258674 -0 0 29.61545 -19.7377 13.96228 12.51362 1.066415 -20.92324 -7.247574 -94.91486 11.56715 38.38317 0 0 -4.439582 6.235049 15.86076 5.047845
-63.3378 126.4372 23.39433 2.791166 -9.925211 20.984 5.847147 17.92089 2.50344 -0 16.72566 -0 -12.35165 -16.98498 -4.370185 4.552161 -18.87108 -3.52739 -0 12.50603 -0 3.852126 -0.03237093 17.17326 1.109062 -2.977035 7.67975 0.2058609 14.38567 -6.088603 1.194809 20.37015 1.34074 -0.1353517 -17.31736 4.051346 -4.093845 -31.2926 11.10503 89.65855 18.67338 -8.258674 -0 0 29.61545 -19.7377 13.96228 12.51362 1.066415 -20.92324 -7.247574 -94.91486 11.56715 38.38317 0 0 -4.439582 6.235049 15.86076 5.047845
-60.60756 126.3902 28.08559 2.667553 -9.958831 20.26804 5.847147 17.92089 2.50344 -0 16.72566 -0 -12.35165 -16.98498 -4.370185 4.552161 -18.87108 -3.52739 -0 12.50603 -0 3.852126 -0.03237093 17.17326 1.109062 -2.977035 7.67975 0.2058609 14.38567 -6.088603 1.194809 20.37015 1.34074 -0.1353517 -17.31736 4.051346 -4.093845 -31.2926 11.10503 89.65855 18.67338 -8.258674 -0 0 29.61545 -19.7377 13.96228 12.51362 1.066415 -20.92324 -7.247574 -94.91486 11.56715 38.38317 0 0 -4.439582 6.235049 15.86076 5.047845
-57.93533 126.3432 32.81013 2.543509 -9.990926 19.55193 5.847147 17.92089 2.50344 -0 16.72566 -0 -12.35165 -16.98498 -4.370185 4.552161 -18.87108 -3.52739 -0 12.50603 -0 3.852126 -0.03237093 17.17326 1.109062 -2.977035 7.67975 0.2058609 14.38567 -6.088603 1.194809 20.37015 1.34074 -0.1353517 -17.31736 4.051346 -4.093845 -31.2926 11.10503 89.65855 18.67338 -8.258674 -0 0 29.61545 -19.7377 13.96228 12.51362 1.066415 -20.92324 -7.247574 -94.91486 11.56715 38.38317 0 0 -4.439582 6.235049 15.86076 5.047845
-55.32152 126.2962 37.56724 2.419057 -10.02149 18.83568 5.847147 17.92089 2.50344 -0 16.72566 -0 -12.35165 -16.98498 -4.370185 4.552161 -18.87108 -3.52739 -0 12.50603 -0 3.852126 -0.03237093 17.17326 1.109062 -2.977035 7.67975 0.2058609 14.38567 -6.088603 1.194809 20.37015 1.34074 -0.1353517 -17.31736 4.051346 -4.093845 -31.2926 11.10503 89.65855 18.67338 -8.258674 -0 0 29.61545 -19.7377 13.96228 12.51362 1.066415 -20.92324 -7.247574 -94.91486 11.56715 38.38317 0 0 -4.439582 6.235049 15.86076 5.047845
-52.76653 126.2492 42.3562 2.294214 -10.05052 18.11931 5.847147 17.92089 2.50344 -0 16.72566 -0 -12.35165 -16.98498 -4.370185 4.552161 -18.87108 -3.52739 -0 12.50603 -0 3.852126 -0.03237093 17.17326 1.109062 -2.977035 7.67975 0.2058609 14.38567 -6.088603 1.194809 20.37015 1.34074 -0.1353517 -17.31736 4.051346 -4.093845 -31.2926 11.10503 89.65855 18.67338 -8.258674 -0 0 29.61545 -19.7377 13.96228 12.51362 1.066415 -20.92324 -7.247574 -94.91486 11.56715 38.38317 0 0 -4.439582 6.235049 15.86076 5.047845
-50.27074 126.2023 47.17628 2.169002 -10.07801 17.4028 5.847147 17.92089 2.50344 -0 16.72566 -0 -12.35165 -16.98498 -4.370185 4.552161 -18.87108 -3.52739 -0 12.50603 -0 3.852126 -0.03237093 17.17326 1.109062 -2.977035 7.67975 0.2058609 14.38567 -6.088603 1.194809 20.37015 1.34074 -0.1353517 -17.31736 4.051346 -4.093845 -31.2926 11.10503 89.65855 18.67338 -8.258674 -0 0 29.61545 -19.7377 13.96228 12.51362 1.066415 -20.92324 -7.247574 -94.91486 11.56715 38.38317 0 0 -4.439582 6.235049 15.86076 5.047845
-47.83453 126.1553 52.02674 2.043439 -10.10396 16.68618 5.847147 17.92089 2.50344 -0 16.72566 -0 -12.35165 -16.98498 -4.370185 4.552161 -18.87108 -3.52739 -0 12.50603 -0 3.852126 -0.03237093 17.17326 1.109062 -2.977035 7.67975 0.2058609 14.38567 -6.088603 1.194809 20.37015 1.34074 -0.1353517 -17.31736 4.051346 -4.093845 -31.2926 11.10503 89.65855 18.67338 -8.258674 -0 0 29.61545 -19.7377 13.96228 12.51362 1.066415 -20.92324 -7.247574 -94.91486 11.56715 38.38317 0 0 -4.439582 6.235049 15.86076 5.047845
-45.45827 126.1083 56.90686 1.917548 -10.12836 15.96945 5.847147 17.92089 2.50344 -0 16.72566 -0 -12.35165 -16.98498 -4.370185 4.552161 -18.87108 -3.52739 -0 12.50603 -0 3.852126 -0.03237093 17.17326 1.109062 -2.977035 7.67975 0.2058609 14.38567 -6.088603 1.194809 20.37015 1.34074 -0.1353517 -17.31736 4.051346 -4.093845 -31.2926 11.10503 89.65855 18.67338 -8.258674 -0 0 29.61545 -19.7377 13.96228 12.51362 1.066415 -20.92324 -7.247574 -94.91486 11.56715 38.38317 0 0 -4.439582 6.235049 15.86076 5.047845
-43.14233 126.0613 61.81588 1.791346 -10.15121 15.25261 5.847147 17.92089 2.50344 -0 16.72566 -0 -12.35165 -16.98498 -4.370185 4.552161 -18.87108 -3.52739 -0 12.50603 -0 3.852126 -0.03237093 17.17326 1.109062 -2.977035 7.67975 0.2058609 14.38567 -6.088603 1.194809 20.37015 1.34074 -0.1353517 -17.31736 4.051346 -4.093845 -31.2926 11.10503 89.65855 18.67338 -8.258674 -0 0 29.61545 -19.7377 13.96228 12.51362 1.066415 -20.92324 -7.247574 -94.91486 11.56715 38.38317 0 0 -4.439582 6.235049 15.86076 5.047845
-40.88705 126.0143 66.75307 1.664855 -10.1725 14.53567 5.847147 17.92089 2.50344 -0 16.72566 -0 -12.35165 -16.98498 -4.370185 4.552161 -18.87108 -3.52739 -0 12.50603 -0 3.852126 -0.03237093 17.17326 1.109062 -2.977035 7.67975 0.2058609 14.38567 -6.088603 1.194809 20.37015 1.34074 -0.1353517 -17.31736 4.051346 -4.093845 -31.2926 11.10503 89.65855 18.67338 -8.258674 -0 0 29.61545 -19.7377 13.96228 12.51362 1.066415 -20.92324 -7.247574 -94.91486 11.56715 38.38317 0 0 -4.439582 6.235049 15.86076 5.047845
-38.69278 125.9674 71.71767 1.538096 -10.19223 13.81864 5.847147 17.92089 2.50344 -0 16.72566 -0 -12.35165 -16.98498 -4.370185 4.552161 -18.87108 -3.52739 -0 12.50603 -0 3.852126 -0.03237093 17.17326 1.109062 -2.977035 7.67975 0.2058609 14.38567 -6.088603 1.194809 20.37015 1.34074 -0.1353517 -17.31736 4.051346 -4.093845 -31.2926 11.10503 89.65855 18.67338 -8.258674 -0 0 29.61545 -19.7377 13.96228 12.51362 1.066415 -20.92324 -7.247574 -94.91486 11.56715 38.38317 0 0 -4.439582 6.235049 15.86076 5.047845
-36.55985 125.9204 76.70893 1.411088 -10.2104 13.10152 5.847147 17.92089 2.50344 -0 16.72566 -0 -12.35165 -16.98498 -4.370185 4.552161 -18.87108 -3.52739 -0 12.50603 -0 3.852126 -0.03237093 17.17326 1.109062 -2.977035 7.67975 0.2058609 14.38567 -6.088603 1.194809 20.37015 1.34074 -0.1353517 -17.31736 4.051346 -4.093845 -31.2926 11.10503 89.65855 18.67338 -8.258674 -0 0 29.61545 -19.7377 13.96228 12.51362 1.066415 -20.92324 -7.247574 -94.91486 11.56715 38.38317 0 0 -4.439582 6.235049 15.86076 5.047845
